<?xml version="1.0" encoding="UTF-8" standalone="no"?>
<svg
   width="92"
   height="32"
   viewBox="0 0 24.341649 8.4666667"
   version="1.1"
   id="svg213"
   inkscape:version="1.1 (c68e22c387, 2021-05-23)"
   sodipodi:docname="Shko Online 52x22.svg"
   xmlns:inkscape="http://www.inkscape.org/namespaces/inkscape"
   xmlns:sodipodi="http://sodipodi.sourceforge.net/DTD/sodipodi-0.dtd"
   xmlns="http://www.w3.org/2000/svg"
   xmlns:svg="http://www.w3.org/2000/svg">
  <sodipodi:namedview
     id="namedview215"
     pagecolor="#ffffff"
     bordercolor="#666666"
     borderopacity="1.0"
     inkscape:pageshadow="2"
     inkscape:pageopacity="0.0"
     inkscape:pagecheckerboard="true"
     inkscape:document-units="mm"
     showgrid="false"
     units="px"
     inkscape:zoom="11.859035"
     inkscape:cx="-7.2940168"
     inkscape:cy="21.123135"
     inkscape:window-width="1920"
     inkscape:window-height="1017"
     inkscape:window-x="-8"
     inkscape:window-y="-8"
     inkscape:window-maximized="1"
     inkscape:current-layer="g24" />
  <defs
     id="defs210" />
  <g
     inkscape:label="Layer 1"
     id="layer1">
    <g
       transform="matrix(0.03527778,0,0,-0.03527778,7.9541245,6.379805)"
       id="g24"
       style="display:inline" />
    <path
       style="fill:#ffffff;fill-opacity:1;stroke:#ffffff;stroke-width:0.889506;stroke-miterlimit:4;stroke-dasharray:none"
       d="M 3.6364107,5.244497 V 3.8444658 H 7.1307184 10.625027 V 5.244497 6.6445276 H 7.1307184 3.6364107 Z m 6.5337343,0.7714456 c 0,-0.1152407 -0.0053,-0.2095303 -0.01172,-0.2095303 -0.0065,0 -0.04269,0.021771 -0.08054,0.048366 C 9.9505175,5.9442653 9.7912665,5.9819217 9.5711021,5.9746091 9.3367827,5.9668291 9.1807783,5.9105271 9.0363753,5.7816376 8.6837287,5.4668776 8.7597453,4.9067138 9.1856437,4.6816747 c 0.058167,-0.030736 0.1127318,-0.05596 0.1212643,-0.056061 0.00856,-9.86e-5 0.015507,0.067067 0.015507,0.1492516 0,0.1288261 -0.00611,0.1544348 -0.044351,0.1857176 C 9.1575856,5.0591479 9.1151834,5.3233262 9.193623,5.4866802 9.2998563,5.7079211 9.6017365,5.7938058 9.839834,5.6705273 10.077108,5.5476752 10.136307,5.1897415 9.9521359,4.991524 9.8842589,4.918468 9.8806849,4.90739 9.8806849,4.7700277 c 0,-0.079527 0.00495,-0.1445963 0.011013,-0.1445963 0.023995,0 0.2142901,0.095714 0.2265101,0.1139292 0.03838,0.057219 0.05193,-0.00237 0.05193,-0.2283551 V 4.2632402 l -1.3181192,0.00492 -1.3181191,0.00492 -0.00552,0.4809634 c -0.00304,0.2645291 0.00178,0.4809625 0.010665,0.4809625 0.0089,0 0.1823895,-0.1414327 0.385519,-0.3142925 L 8.2938935,4.6064022 H 8.4926008 8.6912941 L 8.3733219,4.8997638 8.0553605,5.1931415 8.3992574,5.5950169 8.7431538,5.996892 8.5417189,5.9965018 8.3402837,5.9961119 8.0753091,5.6915956 7.8103342,5.3870797 7.6671493,5.506268 7.5239644,5.6254584 7.5237572,5.8111781 7.5235507,5.9968975 H 7.3581452 7.1927336 V 5.1302086 4.2635223 H 6.3966945 5.6006538 v 0.2572683 0.2572682 l 0.086089,-0.057451 c 0.1122815,-0.074924 0.2605278,-0.1142211 0.430902,-0.1142211 0.1902516,0 0.3195564,0.045015 0.4351189,0.1514792 0.1571754,0.1447946 0.1701854,0.1995457 0.1801639,0.7580662 l 0.0086,0.4809634 H 6.5764611 6.4114046 L 6.4039704,5.5540279 C 6.3972175,5.1512278 6.3926937,5.1043657 6.3538532,5.0360484 6.289579,4.9229642 6.2220194,4.8856663 6.0647603,4.8764403 c -0.2319815,-0.0136 -0.3764248,0.065839 -0.4405656,0.2423248 -0.014671,0.040344 -0.02353,0.2180395 -0.02353,0.471439 V 5.9968949 H 5.4352569 5.2698436 V 5.1302086 4.2635223 H 4.6805677 4.0912911 v 0.1666738 0.1666735 h 0.2532853 c 0.1833919,0 0.2846661,0.00915 0.3670058,0.03316 0.175053,0.05105 0.1795484,0.05569 0.1370578,0.1415817 C 4.77664,4.9171648 4.774399,4.9182237 4.6317178,4.8739425 4.493844,4.8311535 4.201803,4.8199155 4.1312838,4.8546745 c -0.032636,0.01608 -0.039992,0.040489 -0.039992,0.132667 0,0.1376562 -0.00265,0.1359969 0.3004209,0.1886068 0.2995521,0.052001 0.4382069,0.1156383 0.5007885,0.2298246 0.05815,0.1061059 0.059192,0.2121099 0.00312,0.3188063 C 4.8108092,5.8859834 4.584063,5.9786911 4.2722062,5.97947 L 4.0912908,5.9799214 V 6.102699 6.2254694 H 7.130738 10.170165 V 6.0159421 Z M 4.5358329,5.6936867 c 0.045822,-0.023629 0.06375,-0.048247 0.068606,-0.094209 C 4.6118689,5.5290297 4.5822129,5.4871326 4.5056619,5.460025 4.4601219,5.443912 4.1502151,5.387459 4.1067917,5.387387 4.0982317,5.3873723 4.0912847,5.464013 4.0912847,5.5576975 V 5.728032 l 0.087874,0.00655 C 4.3206659,5.745115 4.4691081,5.728072 4.5358251,5.693696 Z"
       id="path242" />
    <g
       transform="matrix(0.07350518,0,0,-0.07350518,9.9444024,6.0349444)"
       id="g28"
       style="display:inline">
      <path
         id="path30"
         style="fill:#E40046;fill-opacity:1;fill-rule:nonzero;stroke:none"
         d="m 0,0 c -7.09,0 -12.271,4.92 -12.271,11.84 0,5.53 3.321,9.76 8.281,11.23 v -5.22 c -1.74,-1.23 -2.84,-3.32 -2.84,-6.01 0,-4.41 2.94,-7.22 6.83,-7.22 3.93,0 6.87,2.81 6.87,7.22 0,2.68 -1.09,4.77 -2.83,5.99 v 5.24 C 9.03,21.6 12.32,17.37 12.32,11.84 12.32,4.92 7.17,0 0,0 m -19.49,0 -7.99,9.89 -4.02,-3.8 V 0 h -5.4 v 32.06 h 5.4 V 12.7 l 11.19,10.37 h 6.48 L -23.46,13.39 -12.92,0 Z m -24.281,0 h -5.399 v 12.53 c 0,4.1 -2.03,6.09 -5.49,6.09 -3.85,0 -6.44,-2.33 -6.44,-6.96 V 0 h -5.4 v 32.06 h 5.4 V 20.39 c 1.77,1.9 4.49,2.94 7.69,2.94 5.53,0 9.639,-3.15 9.639,-10.11 z M -81.63,0 c -3.84,0 -7.69,1.12 -9.76,2.59 l 2.07,4.1 c 2.03,-1.34 5.14,-2.29 8.04,-2.29 3.41,0 4.84,0.95 4.84,2.55 0,4.41 -14.26,0.26 -14.26,9.47 0,4.36 3.929,7.21 10.15,7.21 3.07,0 6.57,-0.73 8.65,-1.99 l -2.08,-4.1 c -2.2,1.3 -4.4,1.73 -6.61,1.73 -3.28,0 -4.84,-1.08 -4.84,-2.59 0,-4.67 14.26,-0.52 14.26,-9.55 C -71.17,2.8 -75.14,0 -81.63,0 m 79,26.87 H 2.68 V 14.49 h -5.31 z m 27.91,4.35 c -5.65,5.73 -13.2,8.88 -21.24,8.88 -0.38,0 -0.76,0 -1.14,-0.02 0.14,1.16 0.22,2.32 0.22,3.5 0,15.42 -12.55,27.96 -27.96,27.96 -10.65,0 -20.14,-5.98 -24.85,-15.12 -4.7,3.55 -10.45,5.51 -16.47,5.51 -15.09,0 -27.35,-12.27 -27.35,-27.35 0,-1.76 0.16,-3.49 0.489,-5.19 -0.669,0.01 -1.329,-0.01 -2,-0.05 -6.959,-0.44 -13.509,-3.46 -18.429,-8.5 -4.92,-5.04 -7.77,-11.65 -8.04,-18.63 -0.01,-0.29 -0.02,-0.58 -0.02,-0.88 -0.05,-5.51 2.08,-10.72 6,-14.67 3.989,-4.03 9.32,-6.25 14.989,-6.25 H 3.65 c 8.23,0 15.73,3.3 21.21,8.64 5.47,5.33 8.92,12.69 9.02,20.81 0.099,8.05 -2.95,15.64 -8.6,21.36" />
    </g>
    <g
       transform="matrix(0.07350518,0,0,-0.07350518,14.088432,5.6518198)"
       id="g32"
       style="display:inline">
      <path
         id="path34"
         style="fill:#E40046;fill-opacity:1;fill-rule:nonzero;stroke:none"
         d="m 0,0 c -3.87,0 -6.79,2.79 -6.79,7.18 0,4.38 2.92,7.18 6.79,7.18 3.91,0 6.84,-2.8 6.84,-7.18 C 6.84,2.79 3.91,0 0,0 M 0,18.92 C -7.05,18.92 -12.21,14.06 -12.21,7.18 -12.21,0.3 -7.05,-4.6 0,-4.6 7.14,-4.6 12.26,0.3 12.26,7.18 12.26,14.06 7.14,18.92 0,18.92" />
    </g>
    <g
       transform="matrix(0.07350518,0,0,-0.07350518,16.325931,4.2610925)"
       id="g36"
       style="display:inline">
      <path
         id="path38"
         style="fill:#E40046;fill-opacity:1;fill-rule:nonzero;stroke:none"
         d="m 0,0 c -3.35,0 -6.14,-1.12 -7.91,-3.23 v 2.97 h -5.11 v -22.96 h 5.37 v 11.61 c 0,4.6 2.58,6.92 6.41,6.92 3.44,0 5.46,-1.98 5.46,-6.06 v -12.47 h 5.37 v 13.15 C 9.59,-3.14 5.51,0 0,0" />
    </g>
    <path
       id="path40"
       style="display:inline;fill:#E40046;fill-opacity:1;fill-rule:nonzero;stroke:none;stroke-width:0.073505"
       d="m 17.533621,5.9678828 h 0.395458 V 3.6230696 h -0.395458 z" />
    <g
       transform="matrix(0.07350518,0,0,-0.07350518,18.646474,3.5282651)"
       id="g42"
       style="display:inline">
      <path
         id="path44"
         style="fill:#E40046;fill-opacity:1;fill-rule:nonzero;stroke:none"
         d="m 0,0 c -1.98,0 -3.44,-1.42 -3.44,-3.22 0,-1.81 1.46,-3.23 3.44,-3.23 2.02,0 3.44,1.46 3.44,3.36 C 3.44,-1.33 1.97,0 0,0 m -2.71,-33.19 h 5.37 v 22.96 h -5.37 z" />
    </g>
    <g
       transform="matrix(0.07350518,0,0,-0.07350518,20.317999,4.2610925)"
       id="g46"
       style="display:inline">
      <path
         id="path48"
         style="fill:#E40046;fill-opacity:1;fill-rule:nonzero;stroke:none"
         d="m 0,0 c -3.35,0 -6.15,-1.12 -7.91,-3.23 v 2.97 h -5.12 v -22.96 h 5.38 v 11.61 c 0,4.6 2.58,6.92 6.4,6.92 3.45,0 5.47,-1.98 5.47,-6.06 v -12.47 h 5.37 v 13.15 C 9.59,-3.14 5.51,0 0,0" />
    </g>
    <g
       transform="matrix(0.07350518,0,0,-0.07350518,21.793989,4.9880644)"
       id="g50"
       style="display:inline">
      <path
         id="path52"
         style="fill:#E40046;fill-opacity:1;fill-rule:nonzero;stroke:none"
         d="m 0,0 c 0.52,3.35 3.06,5.59 6.54,5.59 3.52,0 6.06,-2.28 6.49,-5.59 z m 18.15,-1.98 c 0,7.18 -4.9,11.87 -11.61,11.87 -6.84,0 -11.87,-4.91 -11.87,-11.74 0,-6.84 4.99,-11.78 12.69,-11.78 3.95,0 7.18,1.29 9.24,3.74 l -2.88,3.31 c -1.63,-1.68 -3.66,-2.5 -6.23,-2.5 -4,0 -6.8,2.15 -7.44,5.51 h 18.01 c 0.05,0.51 0.09,1.16 0.09,1.59" />
    </g>
  </g>
</svg>
